<?xml version="1.0" encoding="UTF-8"?>
<!--Generator: Apple Native CoreSVG 341-->
<!DOCTYPE svg
PUBLIC "-//W3C//DTD SVG 1.1//EN"
       "http://www.w3.org/Graphics/SVG/1.1/DTD/svg11.dtd">
<svg version="1.1" xmlns="http://www.w3.org/2000/svg" xmlns:xlink="http://www.w3.org/1999/xlink" viewBox="0 0 44.0747 40.2124">
 <defs>
  <linearGradient id="gradient1" x1="5" y1="0.0512695" x2="5" y2="40.2124" gradientUnits="userSpaceOnUse">
   <stop offset="0" stop-color="#3f9bff" stop-opacity="1"/>
   <stop offset="1" stop-color="#007aff" stop-opacity="1"/>
  </linearGradient>
 </defs>
 <g>
  <rect height="40.2124" opacity="0" width="44.0747" x="0" y="0"/>
  <path d="M9.65576 40.2124L34.0259 40.2124C38.23 40.2124 40.4858 38.0249 40.4858 33.8379L40.4858 12.4927L3.21289 12.4927L3.21289 33.8379C3.21289 38.042 5.46875 40.2124 9.65576 40.2124ZM14.4751 20.2173C13.6035 20.2173 13.0225 19.6191 13.0225 18.7134L13.0225 18.0469C13.0225 17.1411 13.6035 16.5601 14.4751 16.5601L29.2236 16.5601C30.1123 16.5601 30.6934 17.1411 30.6934 18.0469L30.6934 18.7134C30.6934 19.6191 30.1123 20.2173 29.2236 20.2173ZM3.57178 9.7583L40.1099 9.7583C42.4683 9.7583 43.6987 8.33984 43.6987 5.99854L43.6987 3.81104C43.6987 1.46973 42.4683 0.0512695 40.1099 0.0512695L3.57178 0.0512695C1.33301 0.0512695 0 1.46973 0 3.81104L0 5.99854C0 8.33984 1.23047 9.7583 3.57178 9.7583Z" fill="url(#gradient1)"/>
 </g>
</svg>
